<?xml version="1.0" encoding="UTF-8"?>
<svg id="Graphics" xmlns="http://www.w3.org/2000/svg" xmlns:xlink="http://www.w3.org/1999/xlink" viewBox="0 0 23.23 23.74">
  <defs>
    <style>
      .cls-1 {
        fill: #706f6f;
      }

      .cls-1, .cls-2, .cls-3, .cls-4, .cls-5, .cls-6 {
        fill-rule: evenodd;
      }

      .cls-7 {
        fill: url(#linear-gradient-2);
      }

      .cls-2 {
        fill: #c6c6c6;
      }

      .cls-8 {
        mask: url(#mask-2);
      }

      .cls-9 {
        mask: url(#mask-3);
      }

      .cls-3 {
        fill: #b2b2b2;
      }

      .cls-4 {
        fill: #1d1d1b;
      }

      .cls-5 {
        fill: #f6f6f6;
      }

      .cls-10 {
        mask: url(#mask-4);
      }

      .cls-11 {
        fill: url(#linear-gradient-5);
      }

      .cls-6 {
        fill: #dadada;
      }

      .cls-12 {
        mask: url(#mask-1);
      }

      .cls-13 {
        mask: url(#mask);
      }

      .cls-14 {
        fill: url(#linear-gradient-3);
      }

      .cls-15 {
        fill: url(#linear-gradient);
      }

      .cls-16 {
        fill: url(#linear-gradient-4);
      }
    </style>
    <linearGradient id="linear-gradient" x1="-1267.21" y1="-894" x2="-1718.74" y2="-1121.13" gradientTransform="translate(119.9 -62.1) scale(.07 -.07)" gradientUnits="userSpaceOnUse">
      <stop offset="0" stop-color="#fff"/>
      <stop offset="1" stop-color="#fff" stop-opacity="0"/>
    </linearGradient>
    <mask id="mask" x=".58" y="3.13" width="22.02" height="15.47" maskUnits="userSpaceOnUse">
      <g id="id0">
        <rect class="cls-15" x=".58" y="3.13" width="22.02" height="15.47"/>
      </g>
    </mask>
    <linearGradient id="linear-gradient-2" x1="-2222.21" y1="-1185.22" x2="-1154.66" y2="-1118.77" xlink:href="#linear-gradient"/>
    <mask id="mask-1" x="2.09" y="17.52" width="19.81" height="4.95" maskUnits="userSpaceOnUse">
      <g id="id2">
        <rect class="cls-7" x="2.09" y="17.52" width="19.81" height="4.95"/>
      </g>
    </mask>
    <linearGradient id="linear-gradient-3" x1="-989.14" y1="-781.96" x2="-1781.09" y2="-1256.91" xlink:href="#linear-gradient"/>
    <mask id="mask-2" x="2.43" y="13.19" width="17.81" height="6.82" maskUnits="userSpaceOnUse">
      <g id="id4">
        <rect class="cls-14" x="2.43" y="13.19" width="17.81" height="6.82"/>
      </g>
    </mask>
    <linearGradient id="linear-gradient-4" x1="-1363.15" y1="-839.09" x2="-1537.97" y2="-1057.17" xlink:href="#linear-gradient"/>
    <mask id="mask-3" x="10.56" y="1.54" width="8.76" height="10.55" maskUnits="userSpaceOnUse">
      <g id="id6">
        <rect class="cls-16" x="10.56" y="1.54" width="8.76" height="10.55"/>
      </g>
    </mask>
    <linearGradient id="linear-gradient-5" x1="-1591.25" y1="-1176.17" x2="-1564.2" y2="-876.25" xlink:href="#linear-gradient"/>
    <mask id="mask-4" x="3.37" y="5.47" width="6.11" height="10.07" maskUnits="userSpaceOnUse">
      <g id="id8">
        <rect class="cls-11" x="3.37" y="5.47" width="6.11" height="10.07"/>
      </g>
    </mask>
  </defs>
  <g id="Bg-2" data-name="Bg">
    <g>
      <path class="cls-1" d="m2.88,14.58c-5.82,1.15.08,6.66,10.79,2.43,9.72-3.83,10.53-9.45,6.99-11.65,2.18,2.42-1.14,6.43-6.51,9.09-7.01,3.47-15.05,1.83-11.27.13ZM21.93,4.37l-3.51-1.23,1.26,3.65c.24-.5.52-.92.84-1.27l-1.01-1.24,1.33.91c.34-.32.71-.59,1.1-.81Z"/>
      <g class="cls-13">
        <path class="cls-2" d="m.68,15.8c-.82,1.86,4.62,4.51,12.99,1.2,9.72-3.83,10.53-9.45,6.99-11.65,1.16,1,1.48,2.74.58,4.52-2.34,4.62-9.34,7.23-14.17,7.72-3.28.34-5.97-.2-6.4-1.8ZM19.5,4.28c-.72-.76-1.08-1.14-1.08-1.14l3.51,1.23c-.39.22-.76.49-1.1.81l-1.33-.91Z"/>
      </g>
      <path class="cls-3" d="m20.14,13.21c-1.44,1.34-3.55,2.65-6.47,3.8-4.81,1.9-8.66,1.83-10.9,1.08l-.64,2.92c-.08.37,0,.72.24,1.01s.56.45.94.45h17.39c.38,0,.71-.16.94-.45s.31-.64.24-1.01l-1.73-7.8Z"/>
      <g class="cls-12">
        <path class="cls-1" d="m12.24,17.52c-4.14,1.36-7.45,1.24-9.47.57l-.64,2.92c-.08.37,0,.72.24,1.01s.56.45.94.45h17.39c.38,0,.71-.16.94-.45s.31-.64.24-1.01l-.54-2.41h-.05s-.02.02-.02.02c-.05.02-.11.04-.17.05l-.09.03c-.05.01-.11.03-.16.04l-.11.03s-.09.02-.14.03c-.04.01-.09.02-.13.03-.04,0-.08.02-.12.03-.05,0-.1.02-.15.03l-.1.02c-.06,0-.12.02-.17.03l-.09.02c-.06,0-.13.02-.19.03h-.07c-.07.02-.14.03-.21.04h-.05c-.07.02-.15.02-.23.03h-.03c-.08,0-.17.02-.25.02h-.01c-.09,0-.18.01-.26.02h-.02c-.09,0-.18,0-.27,0h0c-.09,0-.19,0-.28,0-.09,0-.18,0-.28,0h0c-.09,0-.18,0-.27,0h-.01c-.08,0-.17,0-.26-.02h-.02c-.08,0-.17-.01-.25-.02h-.02c-.08-.01-.17-.02-.25-.03h-.03c-.08-.01-.16-.02-.24-.03h-.04c-.07-.02-.15-.03-.23-.04h-.04c-.07-.02-.14-.03-.22-.05h-.05c-.07-.02-.14-.04-.21-.06h-.05c-.07-.02-.14-.04-.21-.06h-.05c-.07-.03-.14-.05-.21-.07l-.06-.02c-.06-.02-.13-.04-.19-.06l-.07-.02c-.05-.02-.11-.03-.17-.05l-.09-.03s-.1-.03-.15-.05l-.11-.04s-.09-.03-.13-.05l-.11-.04-.13-.05s-.09-.04-.13-.06c-.04-.01-.07-.03-.11-.05-.04-.02-.09-.04-.14-.06l-.07-.03c-.05-.02-.11-.05-.17-.08l-.06-.03c-.06-.03-.12-.06-.18-.09l-.05-.02c-.07-.04-.13-.07-.2-.11h-.02c-.08-.05-.15-.1-.23-.15h0c-.05-.03-.1-.06-.16-.09Z"/>
      </g>
      <g class="cls-8">
        <path class="cls-4" d="m20.14,13.21c-1.44,1.34-3.55,2.65-6.47,3.8-4.81,1.9-8.66,1.83-10.9,1.08l-.31,1.43c.65.23,1.36.36,2.01.42,3.22.3,6.74-.75,9.63-2.13,2.1-1.01,4.43-2.4,6.14-4.17l-.1-.43Z"/>
      </g>
      <path class="cls-6" d="m19.31,9.46l-.67-3.03c-.13-.56-.6-.94-1.18-.94h-1.6l-.29-1.7c-.11-.61-.37-1.17-.78-1.58h0c-.4-.4-.92-.64-1.54-.64h-2.51c-.62,0-1.14.25-1.53.64h0c-.4.4-.67.97-.78,1.58l-.29,1.7h-1.6c-.57,0-1.05.38-1.17.94l-1.97,8.88h.01c1.31.31,3.04.23,4.37.05,2.04-.27,4.09-.88,5.95-1.79,1.82-.9,3.75-2.13,5.14-3.63l.46-.49ZM10.05,3.05m4.59,2.43h-5.29l.26-1.5c.06-.37.22-.71.44-.93.18-.18.41-.29.69-.29h2.51c.28,0,.51.11.69.29h0c.23.23.38.57.44.94l.26,1.5Z"/>
      <g class="cls-9">
        <path class="cls-5" d="m19.31,9.46l-.67-3.03c-.13-.56-.6-.94-1.18-.94h-1.6l-.29-1.7c-.11-.61-.37-1.17-.78-1.58h0c-.4-.4-.92-.64-1.54-.64h-2.08c-.17.39-.31.79-.41,1.2h2.49c.28,0,.51.11.69.29h0c.23.23.38.57.44.94l.26,1.5h-4.07c.35,3.2,2.67,5.81,5.73,6.59.93-.63,1.81-1.34,2.54-2.13l.46-.49Z"/>
      </g>
      <g class="cls-10">
        <path class="cls-3" d="m7.44,5.48h-.91c-.57,0-1.05.38-1.17.94l-1.97,8.88h.01c1.31.31,3.04.23,4.37.05.57-.07,1.14-.18,1.7-.3-1.49-1.86-2.38-4.22-2.38-6.79,0-.97.13-1.9.36-2.79Z"/>
      </g>
    </g>
  </g>
</svg>