<?xml version="1.0" encoding="UTF-8"?>
<svg id="Logo" xmlns="http://www.w3.org/2000/svg" viewBox="0 0 198.81 143.66">
  <defs>
    <style>
      .cls-1 {
        fill: #f58220;
      }
    </style>
  </defs>
  <path class="cls-1" d="m170.09,107.55h-87.95c-2.47,0-4.48-2-4.48-4.48s2.01-4.48,4.48-4.48h84.47l17.04-67.11h-117.96c-1.68,0-3.21-.94-3.98-2.43l-8.09-15.72h-13.46c-2.47,0-4.48-2-4.48-4.48s2.01-4.48,4.48-4.48h16.19c1.68,0,3.21.94,3.98,2.43l8.09,15.72h120.98c1.38,0,2.69.64,3.53,1.73.85,1.09,1.15,2.51.81,3.85l-19.31,76.06c-.5,1.99-2.29,3.38-4.34,3.38Zm-99.12-4.48c0-2.47-2.01-4.48-4.48-4.48h-4.72c-2.47,0-4.48,2-4.48,4.48s2.01,4.48,4.48,4.48h4.72c2.47,0,4.48-2,4.48-4.48Zm93.9-38.04c0-2.47-2.01-4.48-4.48-4.48h-22.16c-2.47,0-4.48,2-4.48,4.48s2.01,4.48,4.48,4.48h22.16c2.47,0,4.48-2,4.48-4.48Zm-39.89,0c0-2.47-2.01-4.48-4.48-4.48h-62.24c-2.47,0-4.48,2-4.48,4.48s2.01,4.48,4.48,4.48h62.24c2.47,0,4.48-2,4.48-4.48Zm-30.82,19.02c0-2.47-2.01-4.48-4.48-4.48h-9.25c-2.47,0-4.48,2-4.48,4.48s2.01,4.48,4.48,4.48h9.25c2.47,0,4.48-2,4.48-4.48Zm65.9,0c0-2.47-2.01-4.48-4.48-4.48h-48.85c-2.47,0-4.48,2-4.48,4.48s2.01,4.48,4.48,4.48h48.85c2.47,0,4.48-2,4.48-4.48Zm-92.59,0c0-2.47-2.01-4.48-4.48-4.48h-22.1c-2.47,0-4.48,2-4.48,4.48s2.01,4.48,4.48,4.48h22.1c2.47,0,4.48-2,4.48-4.48ZM27.2,8.86c0-2.47-2.01-4.48-4.48-4.48h-13.07c-2.47,0-4.48,2-4.48,4.48s2.01,4.48,4.48,4.48h13.07c2.47,0,4.48-2,4.48-4.48Zm142.48,37.16c0-2.47-2.01-4.48-4.48-4.48h-66.54c-2.47,0-4.48,2-4.48,4.48s2.01,4.48,4.48,4.48h66.54c2.47,0,4.48-2,4.48-4.48Zm-84.95,0c0-2.47-2.01-4.48-4.48-4.48h-35.19c-2.47,0-4.48,2-4.48,4.48s2.01,4.48,4.48,4.48h35.19c2.47,0,4.48-2,4.48-4.48Zm-1.86,70.39c-6.72,0-12.17,5.45-12.17,12.17s5.45,12.17,12.17,12.17,12.17-5.45,12.17-12.17-5.45-12.17-12.17-12.17Zm62.91,0c-6.72,0-12.17,5.45-12.17,12.17s5.45,12.17,12.17,12.17,12.17-5.45,12.17-12.17-5.45-12.17-12.17-12.17Z"/>
</svg>